<?xml version="1.0" standalone="no"?><!DOCTYPE svg PUBLIC "-//W3C//DTD SVG 1.1//EN" "http://www.w3.org/Graphics/SVG/1.1/DTD/svg11.dtd"><svg t="1557389516991" class="icon" style="" viewBox="0 0 1035 1024" version="1.1" xmlns="http://www.w3.org/2000/svg" p-id="914" xmlns:xlink="http://www.w3.org/1999/xlink" width="517.5" height="512"><defs><style type="text/css"></style></defs><path d="M747.84 117.12H169.44a3.84 3.84 0 0 0-2.56 0.96L208 159.04h539.84A3.84 3.84 0 0 0 752 155.2V120.96a3.84 3.84 0 0 0-4.16-3.84zM747.84 192H241.12l41.92 41.92h464a3.84 3.84 0 0 0 3.84-3.84v-33.76a3.84 3.84 0 0 0-3.04-4.32zM747.84 267.04h-432l43.04 43.04h218.56l-122.72 122.88L167.84 720a4.32 4.32 0 0 0-1.28 3.2v35.2a3.84 3.84 0 0 0 3.84 3.84h432l-43.04-43.04H340.64L464 596.16l286.4-286.88a4.32 4.32 0 0 0 0.96-1.44 3.84 3.84 0 0 0 0-1.44v-35.52a3.84 3.84 0 0 0-3.52-3.84zM226.08 719.04l180-180.16 228.64-228.8h57.28L512 490.4 283.36 719.04zM498.4 870.08h-328a3.84 3.84 0 0 0-3.84 3.84v34.24a3.84 3.84 0 0 0 3.84 3.84h578.24a3.84 3.84 0 0 0 2.56-0.96l-40.96-40.96zM170.4 836.8h506.56l-41.92-41.92h-464a3.84 3.84 0 0 0-3.84 3.84v34.24a3.84 3.84 0 0 0 3.2 3.84z" fill="#2c2c2c" p-id="915"></path></svg>